<?xml version="1.0" encoding="utf-8"?>
<!-- Generator: Adobe Illustrator 24.0.1, SVG Export Plug-In . SVG Version: 6.00 Build 0)  -->
<svg version="1.1" id="_x35_0" xmlns="http://www.w3.org/2000/svg" xmlns:xlink="http://www.w3.org/1999/xlink" x="0px" y="0px"
	 viewBox="0 0 512 512" style="enable-background:new 0 0 512 512;" xml:space="preserve">
<style type="text/css">
	.st0{fill:#157DBC;}
	.st1{fill:#3F5D77;}
	.st2{fill:#FFFFFF;}
	.st3{fill:#EA792E;}
	.st4{fill:#DD5E26;}
	.st5{fill:#E9465E;}
	.st6{fill:#C0405C;}
	.st7{fill:#C840CC;}
	.st8{fill:#A628AD;}
	.st9{fill:#334353;}
	.st10{fill:#3E4E60;}
	.st11{fill:#3F6C8E;}
	.st12{fill:#7ED0FC;}
</style>
<g>
	<g>
		<g>
			<g>
				<g>
					<path class="st0" d="M492,215.3v64c0,6-4.9,10.8-10.8,10.8H397c-6,0-10.8-4.9-10.8-10.8v-84.1c0-6,4.9-10.8,10.8-10.8h64
						L492,215.3z"/>
					<path class="st1" d="M492,215.3h-20.1c-6,0-10.8-4.9-10.8-10.8v-20.1L492,215.3z"/>
				</g>
			</g>
			<g>
				<path class="st2" d="M405.4,263c-0.8-0.8-1.2-1.9-1.2-3.2V220c0-1.3,0.4-2.3,1.1-3.1c0.7-0.7,1.8-1.1,3.1-1.1h16.7
					c5.1,0,9.1,1.3,12,3.8c5.7,4.7,5.7,16.9,0,21.6c-2.9,2.6-6.8,3.9-12,3.9H413v14.6C413.3,263.9,408.1,265.6,405.4,263z
					 M424.1,238.4c6,0,9-2.6,9-7.9c0-5.3-3-7.9-9-7.9H413v15.8L424.1,238.4L424.1,238.4z"/>
				<path class="st2" d="M447.2,261.4c-2.1-1.1-2.9-4.1-1.4-5.9c1.5-1.5,2.9-0.8,5,0.2c3.8,1.9,9.1,3.1,13,1.2
					c1.7-0.9,2.1-3.2,1-4.5c-2-1.6-4.1-1.7-7.4-2.6c-6.6-1.5-11.1-3.1-11.3-9.7c0.1-9.2,11.6-12,19.2-9.8c1.8,0.5,3.4,1.2,4.8,2.1
					c3.6,1.8,2.5,8.3-1.9,6.5c-2.9-1.4-5.3-3.1-8.7-3c-1.7,0-3,0.3-4,1c-1.9,1.2-2,4.3,0,5.4c4.2,2.2,14,2.3,16.6,7
					c2.2,3.7,1.2,9.6-2.7,12.1C464.2,265.6,452.3,265,447.2,261.4L447.2,261.4z"/>
			</g>
		</g>
		<g>
			<g>
				<g>
					<path class="st3" d="M125.8,215.3v64c0,6-4.9,10.8-10.8,10.8H30.8c-6,0-10.8-4.9-10.8-10.8v-84.1c0-6,4.9-10.8,10.8-10.8h64
						L125.8,215.3z"/>
					<path class="st4" d="M125.8,215.3h-20.1c-6,0-10.8-4.9-10.8-10.8v-20.1L125.8,215.3z"/>
				</g>
			</g>
			<g>
				<path class="st2" d="M81.9,260.3c0,2.9-3.8,4.7-6.2,3.2c-0.6-0.4-1.1-1-1.5-1.8l-4.1-9.1H46.2l-4.1,9.1
					c-1.4,3.9-7.7,2.6-7.8-1.4c0-0.6,0.1-1.2,0.4-1.8l18.8-40.3c1.6-3.7,7.5-3.7,9.1,0l18.8,40.3C81.8,259.2,81.9,259.8,81.9,260.3z
					 M49.2,245.8h18l-9-20.2L49.2,245.8z"/>
				<path class="st2" d="M88.3,222.6c-1.8-1.5-1.8-5,0-6.6c1.7-1.6,5.6-1.6,7.3,0c1.9,1.5,1.8,5,0,6.6C94,224.2,90,224.2,88.3,222.6
					L88.3,222.6z M89,263.2c-0.8-0.7-1.2-1.7-1.2-3v-26.2c-0.3-5.4,8.8-5.3,8.5,0v26.2C96.5,264,91.5,265.4,89,263.2z"/>
			</g>
		</g>
		<g>
			<g>
				<g>
					<path class="st5" d="M308.9,55.7v64c0,6-4.9,10.8-10.8,10.8h-84.1c-6,0-10.8-4.9-10.8-10.8V35.6c0-6,4.9-10.8,10.8-10.8h64
						L308.9,55.7z"/>
					<path class="st6" d="M308.9,55.7h-20.1c-6,0-10.8-4.9-10.8-10.8V24.8L308.9,55.7z"/>
				</g>
			</g>
			<g>
				<path class="st2" d="M222.3,103.4c-0.8-0.8-1.2-1.9-1.2-3.2V60.3c-0.2-5.8,9-5.8,8.8,0v39.9C230.2,104.2,225,106,222.3,103.4z"
					/>
				<path class="st2" d="M270.4,57c0.8,0.7,1.2,1.7,1.2,2.9v40.7c0,1.2-0.4,2.2-1.2,2.9c-2.4,2.3-7.5,0.9-7.3-2.9v-1.7
					c-3.3,6.4-12.7,7.5-18.4,3.7c-5-3.3-7.1-9.1-7.1-15.3c0-6.1,2.1-11.8,7.1-15c5.6-3.6,15.1-2.7,18.4,3.6V59.7
					C262.9,56,268,54.8,270.4,57z M261,95.3c2.9-3.3,3-12.6,0-15.9c-1.5-1.8-3.5-2.8-6.2-2.8c-6.1,0-8.6,4.5-8.6,10.5
					c0,3.4,0.7,6.1,2.2,8C251.1,99.1,258.3,99.1,261,95.3z"/>
			</g>
		</g>
		<g>
			<g>
				<g>
					<path class="st7" d="M308.9,412.4v64c0,6-4.9,10.8-10.8,10.8h-84.1c-6,0-10.8-4.9-10.8-10.8v-84.1c0-6,4.9-10.8,10.8-10.8h64
						L308.9,412.4z"/>
					<path class="st8" d="M308.9,412.4h-20.1c-6,0-10.8-4.9-10.8-10.8v-20.1L308.9,412.4z"/>
				</g>
			</g>
			<g>
				<path class="st2" d="M257.5,459.1c0,3.5-4.8,5.6-7.1,2.6l-13.8-17.1l-13.9,17.1c-2.2,2.9-7.1,0.9-7.1-2.6c0-0.9,0.3-1.8,1-2.6
					l14.8-18.1l-14.2-17.3c-0.7-0.7-1-1.6-1-2.6c-0.1-3.5,4.8-5.5,7.1-2.5l13.3,16.4l13.3-16.4c2.2-3.1,7.1-1,7.1,2.5
					c0,1-0.3,1.9-1,2.6l-14.2,17.3l14.8,18.1C257.1,457.4,257.5,458.3,257.5,459.1z"/>
				<path class="st2" d="M293.9,415.6c0.8,0.7,1.2,1.7,1.2,2.9v40.7c0,1.2-0.4,2.2-1.2,2.9c-2.4,2.3-7.5,0.9-7.3-2.9v-1.7
					c-3.3,6.4-12.7,7.5-18.4,3.7c-5-3.3-7.1-9.1-7.1-15.3c0-6.1,2.1-11.8,7.1-15c5.6-3.6,15.1-2.7,18.4,3.6v-16.1
					C286.4,414.6,291.5,413.4,293.9,415.6L293.9,415.6z M284.5,454c2.9-3.3,3-12.6,0-15.9c-1.5-1.8-3.5-2.8-6.2-2.8
					c-6.1,0-8.6,4.5-8.6,10.5c0,3.4,0.7,6.1,2.2,8C274.6,457.7,281.8,457.7,284.5,454L284.5,454z"/>
			</g>
		</g>
		<g>
			<path class="st2" d="M335.5,242.2h50.7v10h-50.7V242.2z"/>
			<path class="st2" d="M125.8,242.2h50.7v10h-50.7L125.8,242.2z"/>
			<path class="st2" d="M251,181.3v-50.7h10v50.7H251z"/>
			<path class="st2" d="M251,381.4v-50.7h10v50.7H251z"/>
		</g>
		<g>
			<path class="st9" d="M268.9,281.5h-25.8c-4.6,0-8.3,3.7-8.3,8.3v34h42.3v-34C277.1,285.2,273.4,281.5,268.9,281.5z"/>
			<path class="st9" d="M304.5,323.8h-96.9c-4.9,0-9,4-9,9c0,4.9,4,9,9,9h96.9c4.9,0,9-4,9-9C313.4,327.8,309.4,323.8,304.5,323.8z"
				/>
			<path class="st10" d="M285.9,323.8h-59.7c-3.1,0-5.5,2.5-5.5,5.5s2.5,5.5,5.5,5.5h59.7c3.1,0,5.5-2.5,5.5-5.5
				S288.9,323.8,285.9,323.8z"/>
			<path class="st1" d="M347.2,184v101.1c0,2.8-0.8,5.3-2.2,7.5c-1.8,2.8-4.5,4.8-7.7,5.7c-1.2,0.3-2.4,0.5-3.7,0.5h-155
				c-1.3,0-2.5-0.2-3.7-0.5c-3.2-0.9-6-3-7.7-5.7c-1.4-2.2-2.2-4.7-2.2-7.5V184c0-1.3,0.2-2.5,0.5-3.7c1.3-4.6,4.9-8.2,9.5-9.5
				c1.2-0.3,2.4-0.5,3.7-0.5h155c1.3,0,2.5,0.2,3.7,0.5c4.6,1.3,8.2,4.9,9.5,9.5C347,181.5,347.2,182.7,347.2,184L347.2,184z"/>
			<path class="st10" d="M184.8,184v101.1c0,2.8-0.8,5.3-2.2,7.5c-1.8,2.8-4.5,4.8-7.7,5.7c-3.2-0.9-6-3-7.7-5.7
				c-1.4-2.2-2.2-4.7-2.2-7.5V184c0-6.3,4.2-11.6,10-13.2C180.6,172.4,184.8,177.7,184.8,184z"/>
			<path class="st11" d="M347.2,184v101.1c0,2.8-0.8,5.3-2.2,7.5c-1.8,2.8-4.5,4.8-7.7,5.7c-3.2-0.9-6-3-7.7-5.7
				c-1.4-2.2-2.2-4.7-2.2-7.5V184c0-6.3,4.2-11.6,10-13.2C342.9,172.4,347.2,177.7,347.2,184L347.2,184z"/>
			<path class="st10" d="M347.2,270.6v14.5c0,2.8-0.8,5.3-2.2,7.5c-1.8,2.8-4.5,4.8-7.7,5.7c-1.2,0.3-2.4,0.5-3.7,0.5h-155
				c-1.3,0-2.5-0.2-3.7-0.5c-3.2-0.9-6-3-7.7-5.7c-1.4-2.2-2.2-4.7-2.2-7.5v-14.5H347.2z"/>
			<path class="st9" d="M184.8,270.6v14.5c0,2.8-0.8,5.3-2.2,7.5c-1.8,2.8-4.5,4.8-7.7,5.7c-3.2-0.9-6-3-7.7-5.7
				c-1.4-2.2-2.2-4.7-2.2-7.5v-14.5H184.8z"/>
			<path class="st1" d="M347.2,270.6v14.5c0,2.8-0.8,5.3-2.2,7.5c-1.8,2.8-4.5,4.8-7.7,5.7c-3.2-0.9-6-3-7.7-5.7
				c-1.4-2.2-2.2-4.7-2.2-7.5v-14.5H347.2z"/>
			<path class="st9" d="M266.9,284.7h-21.8c-2.8,0-5.1,2.3-5.1,5.1s2.3,5.1,5.1,5.1h21.8c2.8,0,5.1-2.3,5.1-5.1
				S269.7,284.7,266.9,284.7z"/>
			<path class="st11" d="M296.7,180.3h-64.9c-2.8,0-5-2.2-5-5s2.2-5,5-5h64.9c2.8,0,5,2.2,5,5S299.4,180.3,296.7,180.3z"/>
			<g>
				<path class="st12" d="M328.5,281H183.5c-4.8,0-8.6-3.9-8.6-8.6v-83.4c0-4.8,3.9-8.6,8.6-8.6h145.1c4.8,0,8.6,3.9,8.6,8.6v83.4
					C337.2,277.1,333.3,281,328.5,281z"/>
			</g>
		</g>
	</g>
</g>
</svg>
